<mxfile host="app.diagrams.net" agent="Mozilla/5.0 (Windows NT 10.0; Win64; x64) AppleWebKit/537.36 (KHTML, like Gecko) Chrome/131.0.0.0 Safari/537.36" version="24.8.6">
  <diagram name="Page-1" id="Fy5guY5lvcwtmsiSd3gF">
    <mxGraphModel dx="600" dy="357" grid="1" gridSize="10" guides="1" tooltips="1" connect="1" arrows="1" fold="1" page="1" pageScale="1" pageWidth="1169" pageHeight="827" math="0" shadow="0">
      <root>
        <mxCell id="0" />
        <mxCell id="1" parent="0" />
        <mxCell id="JGyQkVYAMwlcZkeym2UV-43" style="edgeStyle=orthogonalEdgeStyle;rounded=0;orthogonalLoop=1;jettySize=auto;html=1;exitX=0.75;exitY=0;exitDx=0;exitDy=0;endArrow=none;endFill=0;" parent="1" edge="1">
          <mxGeometry relative="1" as="geometry">
            <mxPoint x="310.0322580645161" y="100" as="targetPoint" />
            <mxPoint x="310" y="120" as="sourcePoint" />
          </mxGeometry>
        </mxCell>
        <mxCell id="JGyQkVYAMwlcZkeym2UV-44" style="edgeStyle=orthogonalEdgeStyle;rounded=0;orthogonalLoop=1;jettySize=auto;html=1;exitX=0.25;exitY=0;exitDx=0;exitDy=0;endArrow=none;endFill=0;" parent="1" edge="1">
          <mxGeometry relative="1" as="geometry">
            <mxPoint x="290.0322580645161" y="110" as="targetPoint" />
            <mxPoint x="290" y="120" as="sourcePoint" />
          </mxGeometry>
        </mxCell>
        <mxCell id="JGyQkVYAMwlcZkeym2UV-41" style="edgeStyle=orthogonalEdgeStyle;rounded=0;orthogonalLoop=1;jettySize=auto;html=1;exitX=0.75;exitY=0;exitDx=0;exitDy=0;endArrow=none;endFill=0;" parent="1" edge="1">
          <mxGeometry relative="1" as="geometry">
            <mxPoint x="390.0322580645161" y="100" as="targetPoint" />
            <mxPoint x="390" y="120" as="sourcePoint" />
          </mxGeometry>
        </mxCell>
        <mxCell id="JGyQkVYAMwlcZkeym2UV-42" style="edgeStyle=orthogonalEdgeStyle;rounded=0;orthogonalLoop=1;jettySize=auto;html=1;exitX=0.25;exitY=0;exitDx=0;exitDy=0;endArrow=none;endFill=0;" parent="1" edge="1">
          <mxGeometry relative="1" as="geometry">
            <mxPoint x="370" y="110" as="targetPoint" />
            <mxPoint x="370" y="120" as="sourcePoint" />
          </mxGeometry>
        </mxCell>
        <mxCell id="JGyQkVYAMwlcZkeym2UV-39" style="edgeStyle=orthogonalEdgeStyle;rounded=0;orthogonalLoop=1;jettySize=auto;html=1;exitX=0.75;exitY=0;exitDx=0;exitDy=0;endArrow=none;endFill=0;" parent="1" edge="1">
          <mxGeometry relative="1" as="geometry">
            <mxPoint x="470.0322580645161" y="100" as="targetPoint" />
            <mxPoint x="470" y="120" as="sourcePoint" />
          </mxGeometry>
        </mxCell>
        <mxCell id="JGyQkVYAMwlcZkeym2UV-40" style="edgeStyle=orthogonalEdgeStyle;rounded=0;orthogonalLoop=1;jettySize=auto;html=1;exitX=0.25;exitY=0;exitDx=0;exitDy=0;endArrow=none;endFill=0;" parent="1" edge="1">
          <mxGeometry relative="1" as="geometry">
            <mxPoint x="450.0322580645161" y="110" as="targetPoint" />
            <mxPoint x="450" y="120" as="sourcePoint" />
          </mxGeometry>
        </mxCell>
        <mxCell id="JGyQkVYAMwlcZkeym2UV-37" style="edgeStyle=orthogonalEdgeStyle;rounded=0;orthogonalLoop=1;jettySize=auto;html=1;exitX=0.75;exitY=0;exitDx=0;exitDy=0;endArrow=none;endFill=0;" parent="1" edge="1">
          <mxGeometry relative="1" as="geometry">
            <mxPoint x="550.0322580645161" y="100" as="targetPoint" />
            <mxPoint x="550" y="120" as="sourcePoint" />
          </mxGeometry>
        </mxCell>
        <mxCell id="JGyQkVYAMwlcZkeym2UV-38" style="edgeStyle=orthogonalEdgeStyle;rounded=0;orthogonalLoop=1;jettySize=auto;html=1;exitX=0.25;exitY=0;exitDx=0;exitDy=0;endArrow=none;endFill=0;" parent="1" edge="1">
          <mxGeometry relative="1" as="geometry">
            <mxPoint x="530.0322580645161" y="110" as="targetPoint" />
            <mxPoint x="530" y="120" as="sourcePoint" />
          </mxGeometry>
        </mxCell>
        <mxCell id="JGyQkVYAMwlcZkeym2UV-35" style="edgeStyle=orthogonalEdgeStyle;rounded=0;orthogonalLoop=1;jettySize=auto;html=1;exitX=0.75;exitY=0;exitDx=0;exitDy=0;endArrow=none;endFill=0;" parent="1" edge="1">
          <mxGeometry relative="1" as="geometry">
            <mxPoint x="630.0322580645161" y="100" as="targetPoint" />
            <mxPoint x="630" y="120" as="sourcePoint" />
          </mxGeometry>
        </mxCell>
        <mxCell id="JGyQkVYAMwlcZkeym2UV-36" style="edgeStyle=orthogonalEdgeStyle;rounded=0;orthogonalLoop=1;jettySize=auto;html=1;exitX=0.25;exitY=0;exitDx=0;exitDy=0;endArrow=none;endFill=0;" parent="1" edge="1">
          <mxGeometry relative="1" as="geometry">
            <mxPoint x="610.0322580645161" y="110" as="targetPoint" />
            <mxPoint x="610" y="120" as="sourcePoint" />
          </mxGeometry>
        </mxCell>
        <mxCell id="JGyQkVYAMwlcZkeym2UV-33" style="edgeStyle=orthogonalEdgeStyle;rounded=0;orthogonalLoop=1;jettySize=auto;html=1;exitX=0.75;exitY=0;exitDx=0;exitDy=0;endArrow=none;endFill=0;" parent="1" edge="1">
          <mxGeometry relative="1" as="geometry">
            <mxPoint x="710.0322580645161" y="100" as="targetPoint" />
            <mxPoint x="710" y="120" as="sourcePoint" />
          </mxGeometry>
        </mxCell>
        <mxCell id="JGyQkVYAMwlcZkeym2UV-34" style="edgeStyle=orthogonalEdgeStyle;rounded=0;orthogonalLoop=1;jettySize=auto;html=1;exitX=0.25;exitY=0;exitDx=0;exitDy=0;endArrow=none;endFill=0;" parent="1" edge="1">
          <mxGeometry relative="1" as="geometry">
            <mxPoint x="690.0322580645161" y="110" as="targetPoint" />
            <mxPoint x="690" y="120" as="sourcePoint" />
          </mxGeometry>
        </mxCell>
        <mxCell id="JGyQkVYAMwlcZkeym2UV-31" style="edgeStyle=orthogonalEdgeStyle;rounded=0;orthogonalLoop=1;jettySize=auto;html=1;exitX=0.75;exitY=0;exitDx=0;exitDy=0;endArrow=none;endFill=0;" parent="1" edge="1">
          <mxGeometry relative="1" as="geometry">
            <mxPoint x="790.0322580645161" y="100" as="targetPoint" />
            <mxPoint x="790" y="120" as="sourcePoint" />
          </mxGeometry>
        </mxCell>
        <mxCell id="JGyQkVYAMwlcZkeym2UV-32" style="edgeStyle=orthogonalEdgeStyle;rounded=0;orthogonalLoop=1;jettySize=auto;html=1;exitX=0.25;exitY=0;exitDx=0;exitDy=0;endArrow=none;endFill=0;" parent="1" edge="1">
          <mxGeometry relative="1" as="geometry">
            <mxPoint x="770.0322580645161" y="110" as="targetPoint" />
            <mxPoint x="770" y="120" as="sourcePoint" />
          </mxGeometry>
        </mxCell>
        <mxCell id="JGyQkVYAMwlcZkeym2UV-29" style="edgeStyle=orthogonalEdgeStyle;rounded=0;orthogonalLoop=1;jettySize=auto;html=1;exitX=0.75;exitY=0;exitDx=0;exitDy=0;endArrow=none;endFill=0;" parent="1" edge="1">
          <mxGeometry relative="1" as="geometry">
            <mxPoint x="870.0322580645161" y="100" as="targetPoint" />
            <mxPoint x="870" y="120" as="sourcePoint" />
          </mxGeometry>
        </mxCell>
        <mxCell id="JGyQkVYAMwlcZkeym2UV-30" style="edgeStyle=orthogonalEdgeStyle;rounded=0;orthogonalLoop=1;jettySize=auto;html=1;exitX=0.25;exitY=0;exitDx=0;exitDy=0;endArrow=none;endFill=0;" parent="1" edge="1">
          <mxGeometry relative="1" as="geometry">
            <mxPoint x="850.0322580645161" y="110" as="targetPoint" />
            <mxPoint x="850" y="120" as="sourcePoint" />
          </mxGeometry>
        </mxCell>
        <mxCell id="JGyQkVYAMwlcZkeym2UV-25" value="" style="endArrow=none;html=1;rounded=0;endFill=0;startArrow=oval;startFill=0;" parent="1" edge="1">
          <mxGeometry width="50" height="50" relative="1" as="geometry">
            <mxPoint x="240" y="120" as="sourcePoint" />
            <mxPoint x="850" y="110" as="targetPoint" />
            <Array as="points">
              <mxPoint x="260" y="120" />
              <mxPoint x="260" y="110" />
            </Array>
          </mxGeometry>
        </mxCell>
        <mxCell id="JGyQkVYAMwlcZkeym2UV-26" value="" style="endArrow=none;html=1;rounded=0;startArrow=oval;startFill=0;" parent="1" edge="1">
          <mxGeometry width="50" height="50" relative="1" as="geometry">
            <mxPoint x="240" y="90" as="sourcePoint" />
            <mxPoint x="870" y="100" as="targetPoint" />
            <Array as="points">
              <mxPoint x="260" y="90" />
              <mxPoint x="260" y="100" />
            </Array>
          </mxGeometry>
        </mxCell>
        <mxCell id="JGyQkVYAMwlcZkeym2UV-45" value="" style="shape=waypoint;sketch=0;fillStyle=solid;size=6;pointerEvents=1;points=[];fillColor=none;resizable=0;rotatable=0;perimeter=centerPerimeter;snapToPoint=1;" parent="1" vertex="1">
          <mxGeometry x="300" y="90" width="20" height="20" as="geometry" />
        </mxCell>
        <mxCell id="JGyQkVYAMwlcZkeym2UV-46" value="" style="shape=waypoint;sketch=0;fillStyle=solid;size=6;pointerEvents=1;points=[];fillColor=none;resizable=0;rotatable=0;perimeter=centerPerimeter;snapToPoint=1;" parent="1" vertex="1">
          <mxGeometry x="280" y="100" width="20" height="20" as="geometry" />
        </mxCell>
        <mxCell id="JGyQkVYAMwlcZkeym2UV-47" value="" style="shape=waypoint;sketch=0;fillStyle=solid;size=6;pointerEvents=1;points=[];fillColor=none;resizable=0;rotatable=0;perimeter=centerPerimeter;snapToPoint=1;" parent="1" vertex="1">
          <mxGeometry x="360" y="100" width="20" height="20" as="geometry" />
        </mxCell>
        <mxCell id="JGyQkVYAMwlcZkeym2UV-48" value="" style="shape=waypoint;sketch=0;fillStyle=solid;size=6;pointerEvents=1;points=[];fillColor=none;resizable=0;rotatable=0;perimeter=centerPerimeter;snapToPoint=1;" parent="1" vertex="1">
          <mxGeometry x="380" y="90" width="20" height="20" as="geometry" />
        </mxCell>
        <mxCell id="JGyQkVYAMwlcZkeym2UV-49" value="" style="shape=waypoint;sketch=0;fillStyle=solid;size=6;pointerEvents=1;points=[];fillColor=none;resizable=0;rotatable=0;perimeter=centerPerimeter;snapToPoint=1;" parent="1" vertex="1">
          <mxGeometry x="440" y="100" width="20" height="20" as="geometry" />
        </mxCell>
        <mxCell id="JGyQkVYAMwlcZkeym2UV-50" value="" style="shape=waypoint;sketch=0;fillStyle=solid;size=6;pointerEvents=1;points=[];fillColor=none;resizable=0;rotatable=0;perimeter=centerPerimeter;snapToPoint=1;" parent="1" vertex="1">
          <mxGeometry x="460" y="90" width="20" height="20" as="geometry" />
        </mxCell>
        <mxCell id="JGyQkVYAMwlcZkeym2UV-51" value="" style="shape=waypoint;sketch=0;fillStyle=solid;size=6;pointerEvents=1;points=[];fillColor=none;resizable=0;rotatable=0;perimeter=centerPerimeter;snapToPoint=1;" parent="1" vertex="1">
          <mxGeometry x="520" y="100" width="20" height="20" as="geometry" />
        </mxCell>
        <mxCell id="JGyQkVYAMwlcZkeym2UV-52" value="" style="shape=waypoint;sketch=0;fillStyle=solid;size=6;pointerEvents=1;points=[];fillColor=none;resizable=0;rotatable=0;perimeter=centerPerimeter;snapToPoint=1;" parent="1" vertex="1">
          <mxGeometry x="540" y="90" width="20" height="20" as="geometry" />
        </mxCell>
        <mxCell id="JGyQkVYAMwlcZkeym2UV-53" value="" style="shape=waypoint;sketch=0;fillStyle=solid;size=6;pointerEvents=1;points=[];fillColor=none;resizable=0;rotatable=0;perimeter=centerPerimeter;snapToPoint=1;" parent="1" vertex="1">
          <mxGeometry x="600" y="100" width="20" height="20" as="geometry" />
        </mxCell>
        <mxCell id="JGyQkVYAMwlcZkeym2UV-54" value="" style="shape=waypoint;sketch=0;fillStyle=solid;size=6;pointerEvents=1;points=[];fillColor=none;resizable=0;rotatable=0;perimeter=centerPerimeter;snapToPoint=1;" parent="1" vertex="1">
          <mxGeometry x="620" y="90" width="20" height="20" as="geometry" />
        </mxCell>
        <mxCell id="JGyQkVYAMwlcZkeym2UV-55" value="" style="shape=waypoint;sketch=0;fillStyle=solid;size=6;pointerEvents=1;points=[];fillColor=none;resizable=0;rotatable=0;perimeter=centerPerimeter;snapToPoint=1;" parent="1" vertex="1">
          <mxGeometry x="680" y="100" width="20" height="20" as="geometry" />
        </mxCell>
        <mxCell id="JGyQkVYAMwlcZkeym2UV-56" value="" style="shape=waypoint;sketch=0;fillStyle=solid;size=6;pointerEvents=1;points=[];fillColor=none;resizable=0;rotatable=0;perimeter=centerPerimeter;snapToPoint=1;" parent="1" vertex="1">
          <mxGeometry x="700" y="90" width="20" height="20" as="geometry" />
        </mxCell>
        <mxCell id="JGyQkVYAMwlcZkeym2UV-57" value="" style="shape=waypoint;sketch=0;fillStyle=solid;size=6;pointerEvents=1;points=[];fillColor=none;resizable=0;rotatable=0;perimeter=centerPerimeter;snapToPoint=1;" parent="1" vertex="1">
          <mxGeometry x="760" y="100" width="20" height="20" as="geometry" />
        </mxCell>
        <mxCell id="JGyQkVYAMwlcZkeym2UV-58" value="" style="shape=waypoint;sketch=0;fillStyle=solid;size=6;pointerEvents=1;points=[];fillColor=none;resizable=0;rotatable=0;perimeter=centerPerimeter;snapToPoint=1;" parent="1" vertex="1">
          <mxGeometry x="780" y="90" width="20" height="20" as="geometry" />
        </mxCell>
        <mxCell id="JGyQkVYAMwlcZkeym2UV-926" value="" style="endArrow=none;html=1;rounded=0;" parent="1" edge="1">
          <mxGeometry width="50" height="50" relative="1" as="geometry">
            <mxPoint x="280" y="140" as="sourcePoint" />
            <mxPoint x="270" y="50" as="targetPoint" />
            <Array as="points">
              <mxPoint x="270" y="140" />
            </Array>
          </mxGeometry>
        </mxCell>
        <mxCell id="JGyQkVYAMwlcZkeym2UV-1168" value="" style="endArrow=oval;html=1;rounded=0;endFill=0;" parent="1" edge="1">
          <mxGeometry width="50" height="50" relative="1" as="geometry">
            <mxPoint x="510" y="80" as="sourcePoint" />
            <mxPoint x="545" y="40" as="targetPoint" />
            <Array as="points">
              <mxPoint x="545" y="80" />
            </Array>
          </mxGeometry>
        </mxCell>
        <mxCell id="JGyQkVYAMwlcZkeym2UV-1169" value="" style="endArrow=none;html=1;rounded=0;startArrow=oval;startFill=0;" parent="1" edge="1">
          <mxGeometry width="50" height="50" relative="1" as="geometry">
            <mxPoint x="555" y="40" as="sourcePoint" />
            <mxPoint x="590" y="80" as="targetPoint" />
            <Array as="points">
              <mxPoint x="555" y="80" />
            </Array>
          </mxGeometry>
        </mxCell>
        <mxCell id="JGyQkVYAMwlcZkeym2UV-1170" value="" style="endArrow=oval;html=1;rounded=0;startArrow=none;startFill=0;endFill=0;" parent="1" edge="1">
          <mxGeometry width="50" height="50" relative="1" as="geometry">
            <mxPoint x="430" y="70" as="sourcePoint" />
            <mxPoint x="535" y="40" as="targetPoint" />
            <Array as="points">
              <mxPoint x="535" y="70" />
            </Array>
          </mxGeometry>
        </mxCell>
        <mxCell id="JGyQkVYAMwlcZkeym2UV-1171" value="" style="endArrow=none;html=1;rounded=0;startArrow=oval;startFill=0;" parent="1" edge="1">
          <mxGeometry width="50" height="50" relative="1" as="geometry">
            <mxPoint x="565" y="40" as="sourcePoint" />
            <mxPoint x="670" y="70" as="targetPoint" />
            <Array as="points">
              <mxPoint x="565" y="70" />
            </Array>
          </mxGeometry>
        </mxCell>
        <mxCell id="JGyQkVYAMwlcZkeym2UV-1172" value="" style="endArrow=oval;html=1;rounded=0;endFill=0;" parent="1" edge="1">
          <mxGeometry width="50" height="50" relative="1" as="geometry">
            <mxPoint x="350" y="60" as="sourcePoint" />
            <mxPoint x="525" y="40" as="targetPoint" />
            <Array as="points">
              <mxPoint x="525" y="60" />
            </Array>
          </mxGeometry>
        </mxCell>
        <mxCell id="JGyQkVYAMwlcZkeym2UV-1173" value="" style="endArrow=oval;html=1;rounded=0;startArrow=none;startFill=0;endFill=0;" parent="1" edge="1">
          <mxGeometry width="50" height="50" relative="1" as="geometry">
            <mxPoint x="270" y="50" as="sourcePoint" />
            <mxPoint x="515" y="40" as="targetPoint" />
            <Array as="points">
              <mxPoint x="515" y="50" />
            </Array>
          </mxGeometry>
        </mxCell>
        <mxCell id="JGyQkVYAMwlcZkeym2UV-1174" value="" style="endArrow=none;html=1;rounded=0;startArrow=oval;startFill=0;" parent="1" edge="1">
          <mxGeometry width="50" height="50" relative="1" as="geometry">
            <mxPoint x="575" y="40" as="sourcePoint" />
            <mxPoint x="750" y="60" as="targetPoint" />
            <Array as="points">
              <mxPoint x="575" y="60" />
            </Array>
          </mxGeometry>
        </mxCell>
        <mxCell id="JGyQkVYAMwlcZkeym2UV-1175" value="" style="endArrow=none;html=1;rounded=0;startArrow=oval;startFill=0;" parent="1" edge="1">
          <mxGeometry width="50" height="50" relative="1" as="geometry">
            <mxPoint x="585" y="40" as="sourcePoint" />
            <mxPoint x="830" y="50" as="targetPoint" />
            <Array as="points">
              <mxPoint x="585" y="50" />
            </Array>
          </mxGeometry>
        </mxCell>
        <mxCell id="JGyQkVYAMwlcZkeym2UV-1176" value="&lt;i&gt;8 data input lines&lt;/i&gt;" style="text;html=1;align=center;verticalAlign=middle;whiteSpace=wrap;rounded=0;" parent="1" vertex="1">
          <mxGeometry x="505" y="10" width="95" height="30" as="geometry" />
        </mxCell>
        <mxCell id="JGyQkVYAMwlcZkeym2UV-1177" value="" style="endArrow=oval;html=1;rounded=0;endFill=0;" parent="1" edge="1">
          <mxGeometry width="50" height="50" relative="1" as="geometry">
            <mxPoint x="570" y="180" as="sourcePoint" />
            <mxPoint x="605" y="220" as="targetPoint" />
            <Array as="points">
              <mxPoint x="605" y="180" />
            </Array>
          </mxGeometry>
        </mxCell>
        <mxCell id="JGyQkVYAMwlcZkeym2UV-1178" value="" style="endArrow=none;html=1;rounded=0;startArrow=oval;startFill=0;" parent="1" edge="1">
          <mxGeometry width="50" height="50" relative="1" as="geometry">
            <mxPoint x="615" y="220" as="sourcePoint" />
            <mxPoint x="650" y="180" as="targetPoint" />
            <Array as="points">
              <mxPoint x="615" y="180" />
            </Array>
          </mxGeometry>
        </mxCell>
        <mxCell id="JGyQkVYAMwlcZkeym2UV-1179" value="" style="endArrow=oval;html=1;rounded=0;startArrow=none;startFill=0;endFill=0;" parent="1" edge="1">
          <mxGeometry width="50" height="50" relative="1" as="geometry">
            <mxPoint x="490" y="190" as="sourcePoint" />
            <mxPoint x="595" y="220" as="targetPoint" />
            <Array as="points">
              <mxPoint x="595" y="190" />
            </Array>
          </mxGeometry>
        </mxCell>
        <mxCell id="JGyQkVYAMwlcZkeym2UV-1180" value="" style="endArrow=oval;html=1;rounded=0;startArrow=none;startFill=0;endFill=0;" parent="1" edge="1">
          <mxGeometry width="50" height="50" relative="1" as="geometry">
            <mxPoint x="410" y="200" as="sourcePoint" />
            <mxPoint x="585" y="220" as="targetPoint" />
            <Array as="points">
              <mxPoint x="585" y="200" />
            </Array>
          </mxGeometry>
        </mxCell>
        <mxCell id="JGyQkVYAMwlcZkeym2UV-1181" value="" style="endArrow=none;html=1;rounded=0;startArrow=oval;startFill=0;" parent="1" edge="1">
          <mxGeometry width="50" height="50" relative="1" as="geometry">
            <mxPoint x="575" y="220" as="sourcePoint" />
            <mxPoint x="330" y="210" as="targetPoint" />
            <Array as="points">
              <mxPoint x="575" y="210" />
            </Array>
          </mxGeometry>
        </mxCell>
        <mxCell id="JGyQkVYAMwlcZkeym2UV-1182" value="" style="endArrow=none;html=1;rounded=0;startArrow=oval;startFill=0;" parent="1" edge="1">
          <mxGeometry width="50" height="50" relative="1" as="geometry">
            <mxPoint x="625" y="220" as="sourcePoint" />
            <mxPoint x="730" y="190" as="targetPoint" />
            <Array as="points">
              <mxPoint x="625" y="190" />
            </Array>
          </mxGeometry>
        </mxCell>
        <mxCell id="JGyQkVYAMwlcZkeym2UV-1183" value="" style="endArrow=none;html=1;rounded=0;startArrow=oval;startFill=0;" parent="1" edge="1">
          <mxGeometry width="50" height="50" relative="1" as="geometry">
            <mxPoint x="635" y="220" as="sourcePoint" />
            <mxPoint x="810" y="200" as="targetPoint" />
            <Array as="points">
              <mxPoint x="635" y="200" />
            </Array>
          </mxGeometry>
        </mxCell>
        <mxCell id="JGyQkVYAMwlcZkeym2UV-1184" value="" style="endArrow=none;html=1;rounded=0;startArrow=oval;startFill=0;" parent="1" edge="1">
          <mxGeometry width="50" height="50" relative="1" as="geometry">
            <mxPoint x="645" y="220" as="sourcePoint" />
            <mxPoint x="890" y="210" as="targetPoint" />
            <Array as="points">
              <mxPoint x="645" y="210" />
            </Array>
          </mxGeometry>
        </mxCell>
        <mxCell id="JGyQkVYAMwlcZkeym2UV-1185" value="&lt;i&gt;8 data output lines&lt;/i&gt;" style="text;html=1;align=center;verticalAlign=middle;whiteSpace=wrap;rounded=0;" parent="1" vertex="1">
          <mxGeometry x="555" y="220" width="110" height="30" as="geometry" />
        </mxCell>
        <mxCell id="JGyQkVYAMwlcZkeym2UV-1190" value="&lt;i&gt;rw&lt;/i&gt;" style="text;html=1;align=center;verticalAlign=middle;whiteSpace=wrap;rounded=0;" parent="1" vertex="1">
          <mxGeometry x="190" y="80" width="60" height="20" as="geometry" />
        </mxCell>
        <mxCell id="JGyQkVYAMwlcZkeym2UV-1214" style="edgeStyle=orthogonalEdgeStyle;rounded=0;orthogonalLoop=1;jettySize=auto;html=1;exitX=0;exitY=0.5;exitDx=0;exitDy=0;endArrow=none;endFill=0;" parent="1" source="JGyQkVYAMwlcZkeym2UV-85" edge="1">
          <mxGeometry relative="1" as="geometry">
            <mxPoint x="350" y="60" as="targetPoint" />
            <Array as="points">
              <mxPoint x="350" y="140" />
              <mxPoint x="350" y="60" />
            </Array>
          </mxGeometry>
        </mxCell>
        <mxCell id="JGyQkVYAMwlcZkeym2UV-1223" style="edgeStyle=orthogonalEdgeStyle;rounded=0;orthogonalLoop=1;jettySize=auto;html=1;exitX=1;exitY=0.5;exitDx=0;exitDy=0;endArrow=none;endFill=0;" parent="1" source="JGyQkVYAMwlcZkeym2UV-85" edge="1">
          <mxGeometry relative="1" as="geometry">
            <mxPoint x="410" y="200" as="targetPoint" />
            <Array as="points">
              <mxPoint x="410" y="140" />
            </Array>
          </mxGeometry>
        </mxCell>
        <mxCell id="JGyQkVYAMwlcZkeym2UV-85" value="&lt;font style=&quot;font-size: 16px;&quot;&gt;BC&lt;/font&gt;" style="whiteSpace=wrap;html=1;aspect=fixed;" parent="1" vertex="1">
          <mxGeometry x="360" y="120" width="40" height="40" as="geometry" />
        </mxCell>
        <mxCell id="JGyQkVYAMwlcZkeym2UV-86" value="&lt;font style=&quot;font-size: 5px;&quot;&gt;sel&lt;/font&gt;" style="text;html=1;align=center;verticalAlign=middle;whiteSpace=wrap;rounded=0;" parent="1" vertex="1">
          <mxGeometry x="360" y="115" width="20" height="10" as="geometry" />
        </mxCell>
        <mxCell id="JGyQkVYAMwlcZkeym2UV-87" value="&lt;font style=&quot;font-size: 5px;&quot;&gt;r_w&lt;/font&gt;" style="text;html=1;align=center;verticalAlign=middle;whiteSpace=wrap;rounded=0;" parent="1" vertex="1">
          <mxGeometry x="380" y="115" width="20" height="10" as="geometry" />
        </mxCell>
        <mxCell id="JGyQkVYAMwlcZkeym2UV-88" value="&lt;font style=&quot;font-size: 5px;&quot;&gt;in&lt;/font&gt;" style="text;html=1;align=center;verticalAlign=middle;whiteSpace=wrap;rounded=0;" parent="1" vertex="1">
          <mxGeometry x="350" y="130" width="30" height="15" as="geometry" />
        </mxCell>
        <mxCell id="JGyQkVYAMwlcZkeym2UV-89" value="&lt;font style=&quot;font-size: 5px;&quot;&gt;out&lt;/font&gt;" style="text;html=1;align=center;verticalAlign=middle;whiteSpace=wrap;rounded=0;" parent="1" vertex="1">
          <mxGeometry x="380" y="130" width="30" height="15" as="geometry" />
        </mxCell>
        <mxCell id="JGyQkVYAMwlcZkeym2UV-1216" style="edgeStyle=orthogonalEdgeStyle;rounded=0;orthogonalLoop=1;jettySize=auto;html=1;exitX=0;exitY=0.5;exitDx=0;exitDy=0;endArrow=none;endFill=0;" parent="1" source="JGyQkVYAMwlcZkeym2UV-97" edge="1">
          <mxGeometry relative="1" as="geometry">
            <mxPoint x="510" y="80" as="targetPoint" />
            <Array as="points">
              <mxPoint x="510" y="140" />
              <mxPoint x="510" y="80" />
            </Array>
          </mxGeometry>
        </mxCell>
        <mxCell id="JGyQkVYAMwlcZkeym2UV-1225" style="edgeStyle=orthogonalEdgeStyle;rounded=0;orthogonalLoop=1;jettySize=auto;html=1;exitX=1;exitY=0.5;exitDx=0;exitDy=0;endArrow=none;endFill=0;" parent="1" source="JGyQkVYAMwlcZkeym2UV-97" edge="1">
          <mxGeometry relative="1" as="geometry">
            <mxPoint x="570" y="180" as="targetPoint" />
            <Array as="points">
              <mxPoint x="570" y="140" />
              <mxPoint x="570" y="180" />
            </Array>
          </mxGeometry>
        </mxCell>
        <mxCell id="JGyQkVYAMwlcZkeym2UV-97" value="&lt;font style=&quot;font-size: 16px;&quot;&gt;BC&lt;/font&gt;" style="whiteSpace=wrap;html=1;aspect=fixed;" parent="1" vertex="1">
          <mxGeometry x="520" y="120" width="40" height="40" as="geometry" />
        </mxCell>
        <mxCell id="JGyQkVYAMwlcZkeym2UV-98" value="&lt;font style=&quot;font-size: 5px;&quot;&gt;sel&lt;/font&gt;" style="text;html=1;align=center;verticalAlign=middle;whiteSpace=wrap;rounded=0;" parent="1" vertex="1">
          <mxGeometry x="520" y="115" width="20" height="10" as="geometry" />
        </mxCell>
        <mxCell id="JGyQkVYAMwlcZkeym2UV-99" value="&lt;font style=&quot;font-size: 5px;&quot;&gt;r_w&lt;/font&gt;" style="text;html=1;align=center;verticalAlign=middle;whiteSpace=wrap;rounded=0;" parent="1" vertex="1">
          <mxGeometry x="540" y="115" width="20" height="10" as="geometry" />
        </mxCell>
        <mxCell id="JGyQkVYAMwlcZkeym2UV-100" value="&lt;font style=&quot;font-size: 5px;&quot;&gt;in&lt;/font&gt;" style="text;html=1;align=center;verticalAlign=middle;whiteSpace=wrap;rounded=0;" parent="1" vertex="1">
          <mxGeometry x="510" y="130" width="30" height="15" as="geometry" />
        </mxCell>
        <mxCell id="JGyQkVYAMwlcZkeym2UV-101" value="&lt;font style=&quot;font-size: 5px;&quot;&gt;out&lt;/font&gt;" style="text;html=1;align=center;verticalAlign=middle;whiteSpace=wrap;rounded=0;" parent="1" vertex="1">
          <mxGeometry x="540" y="130" width="30" height="15" as="geometry" />
        </mxCell>
        <mxCell id="JGyQkVYAMwlcZkeym2UV-1217" style="edgeStyle=orthogonalEdgeStyle;rounded=0;orthogonalLoop=1;jettySize=auto;html=1;exitX=0;exitY=0.5;exitDx=0;exitDy=0;endArrow=none;endFill=0;" parent="1" source="JGyQkVYAMwlcZkeym2UV-103" edge="1">
          <mxGeometry relative="1" as="geometry">
            <mxPoint x="590" y="80" as="targetPoint" />
            <Array as="points">
              <mxPoint x="590" y="140" />
            </Array>
          </mxGeometry>
        </mxCell>
        <mxCell id="JGyQkVYAMwlcZkeym2UV-1226" style="edgeStyle=orthogonalEdgeStyle;rounded=0;orthogonalLoop=1;jettySize=auto;html=1;exitX=1;exitY=0.5;exitDx=0;exitDy=0;endArrow=none;endFill=0;" parent="1" source="JGyQkVYAMwlcZkeym2UV-103" edge="1">
          <mxGeometry relative="1" as="geometry">
            <mxPoint x="650" y="180" as="targetPoint" />
            <Array as="points">
              <mxPoint x="650" y="140" />
              <mxPoint x="650" y="180" />
            </Array>
          </mxGeometry>
        </mxCell>
        <mxCell id="JGyQkVYAMwlcZkeym2UV-103" value="&lt;font style=&quot;font-size: 16px;&quot;&gt;BC&lt;/font&gt;" style="whiteSpace=wrap;html=1;aspect=fixed;" parent="1" vertex="1">
          <mxGeometry x="600" y="120" width="40" height="40" as="geometry" />
        </mxCell>
        <mxCell id="JGyQkVYAMwlcZkeym2UV-104" value="&lt;font style=&quot;font-size: 5px;&quot;&gt;sel&lt;/font&gt;" style="text;html=1;align=center;verticalAlign=middle;whiteSpace=wrap;rounded=0;" parent="1" vertex="1">
          <mxGeometry x="600" y="115" width="20" height="10" as="geometry" />
        </mxCell>
        <mxCell id="JGyQkVYAMwlcZkeym2UV-105" value="&lt;font style=&quot;font-size: 5px;&quot;&gt;r_w&lt;/font&gt;" style="text;html=1;align=center;verticalAlign=middle;whiteSpace=wrap;rounded=0;" parent="1" vertex="1">
          <mxGeometry x="620" y="115" width="20" height="10" as="geometry" />
        </mxCell>
        <mxCell id="JGyQkVYAMwlcZkeym2UV-106" value="&lt;font style=&quot;font-size: 5px;&quot;&gt;in&lt;/font&gt;" style="text;html=1;align=center;verticalAlign=middle;whiteSpace=wrap;rounded=0;" parent="1" vertex="1">
          <mxGeometry x="590" y="130" width="30" height="15" as="geometry" />
        </mxCell>
        <mxCell id="JGyQkVYAMwlcZkeym2UV-107" value="&lt;font style=&quot;font-size: 5px;&quot;&gt;out&lt;/font&gt;" style="text;html=1;align=center;verticalAlign=middle;whiteSpace=wrap;rounded=0;" parent="1" vertex="1">
          <mxGeometry x="620" y="130" width="30" height="15" as="geometry" />
        </mxCell>
        <mxCell id="JGyQkVYAMwlcZkeym2UV-1218" style="edgeStyle=orthogonalEdgeStyle;rounded=0;orthogonalLoop=1;jettySize=auto;html=1;exitX=0;exitY=0.5;exitDx=0;exitDy=0;endArrow=none;endFill=0;" parent="1" source="JGyQkVYAMwlcZkeym2UV-109" edge="1">
          <mxGeometry relative="1" as="geometry">
            <mxPoint x="670" y="70" as="targetPoint" />
            <Array as="points">
              <mxPoint x="670" y="140" />
            </Array>
          </mxGeometry>
        </mxCell>
        <mxCell id="JGyQkVYAMwlcZkeym2UV-1227" style="edgeStyle=orthogonalEdgeStyle;rounded=0;orthogonalLoop=1;jettySize=auto;html=1;exitX=1;exitY=0.5;exitDx=0;exitDy=0;endArrow=none;endFill=0;" parent="1" source="JGyQkVYAMwlcZkeym2UV-109" edge="1">
          <mxGeometry relative="1" as="geometry">
            <mxPoint x="730" y="190" as="targetPoint" />
            <Array as="points">
              <mxPoint x="730" y="140" />
            </Array>
          </mxGeometry>
        </mxCell>
        <mxCell id="JGyQkVYAMwlcZkeym2UV-109" value="&lt;font style=&quot;font-size: 16px;&quot;&gt;BC&lt;/font&gt;" style="whiteSpace=wrap;html=1;aspect=fixed;" parent="1" vertex="1">
          <mxGeometry x="680" y="120" width="40" height="40" as="geometry" />
        </mxCell>
        <mxCell id="JGyQkVYAMwlcZkeym2UV-110" value="&lt;font style=&quot;font-size: 5px;&quot;&gt;sel&lt;/font&gt;" style="text;html=1;align=center;verticalAlign=middle;whiteSpace=wrap;rounded=0;" parent="1" vertex="1">
          <mxGeometry x="680" y="115" width="20" height="10" as="geometry" />
        </mxCell>
        <mxCell id="JGyQkVYAMwlcZkeym2UV-111" value="&lt;font style=&quot;font-size: 5px;&quot;&gt;r_w&lt;/font&gt;" style="text;html=1;align=center;verticalAlign=middle;whiteSpace=wrap;rounded=0;" parent="1" vertex="1">
          <mxGeometry x="700" y="115" width="20" height="10" as="geometry" />
        </mxCell>
        <mxCell id="JGyQkVYAMwlcZkeym2UV-112" value="&lt;font style=&quot;font-size: 5px;&quot;&gt;in&lt;/font&gt;" style="text;html=1;align=center;verticalAlign=middle;whiteSpace=wrap;rounded=0;" parent="1" vertex="1">
          <mxGeometry x="670" y="130" width="30" height="15" as="geometry" />
        </mxCell>
        <mxCell id="JGyQkVYAMwlcZkeym2UV-113" value="&lt;font style=&quot;font-size: 5px;&quot;&gt;out&lt;/font&gt;" style="text;html=1;align=center;verticalAlign=middle;whiteSpace=wrap;rounded=0;" parent="1" vertex="1">
          <mxGeometry x="700" y="130" width="30" height="15" as="geometry" />
        </mxCell>
        <mxCell id="JGyQkVYAMwlcZkeym2UV-1219" style="edgeStyle=orthogonalEdgeStyle;rounded=0;orthogonalLoop=1;jettySize=auto;html=1;exitX=0;exitY=0.5;exitDx=0;exitDy=0;endArrow=none;endFill=0;" parent="1" source="JGyQkVYAMwlcZkeym2UV-115" edge="1">
          <mxGeometry relative="1" as="geometry">
            <mxPoint x="750" y="60" as="targetPoint" />
            <Array as="points">
              <mxPoint x="750" y="140" />
            </Array>
          </mxGeometry>
        </mxCell>
        <mxCell id="JGyQkVYAMwlcZkeym2UV-1228" style="edgeStyle=orthogonalEdgeStyle;rounded=0;orthogonalLoop=1;jettySize=auto;html=1;exitX=1;exitY=0.5;exitDx=0;exitDy=0;endArrow=none;endFill=0;" parent="1" source="JGyQkVYAMwlcZkeym2UV-115" edge="1">
          <mxGeometry relative="1" as="geometry">
            <mxPoint x="810" y="200" as="targetPoint" />
            <Array as="points">
              <mxPoint x="810" y="140" />
            </Array>
          </mxGeometry>
        </mxCell>
        <mxCell id="JGyQkVYAMwlcZkeym2UV-115" value="&lt;font style=&quot;font-size: 16px;&quot;&gt;BC&lt;/font&gt;" style="whiteSpace=wrap;html=1;aspect=fixed;" parent="1" vertex="1">
          <mxGeometry x="760" y="120" width="40" height="40" as="geometry" />
        </mxCell>
        <mxCell id="JGyQkVYAMwlcZkeym2UV-116" value="&lt;font style=&quot;font-size: 5px;&quot;&gt;sel&lt;/font&gt;" style="text;html=1;align=center;verticalAlign=middle;whiteSpace=wrap;rounded=0;" parent="1" vertex="1">
          <mxGeometry x="760" y="115" width="20" height="10" as="geometry" />
        </mxCell>
        <mxCell id="JGyQkVYAMwlcZkeym2UV-117" value="&lt;font style=&quot;font-size: 5px;&quot;&gt;r_w&lt;/font&gt;" style="text;html=1;align=center;verticalAlign=middle;whiteSpace=wrap;rounded=0;" parent="1" vertex="1">
          <mxGeometry x="780" y="115" width="20" height="10" as="geometry" />
        </mxCell>
        <mxCell id="JGyQkVYAMwlcZkeym2UV-118" value="&lt;font style=&quot;font-size: 5px;&quot;&gt;in&lt;/font&gt;" style="text;html=1;align=center;verticalAlign=middle;whiteSpace=wrap;rounded=0;" parent="1" vertex="1">
          <mxGeometry x="750" y="130" width="30" height="15" as="geometry" />
        </mxCell>
        <mxCell id="JGyQkVYAMwlcZkeym2UV-119" value="&lt;font style=&quot;font-size: 5px;&quot;&gt;out&lt;/font&gt;" style="text;html=1;align=center;verticalAlign=middle;whiteSpace=wrap;rounded=0;" parent="1" vertex="1">
          <mxGeometry x="780" y="130" width="30" height="15" as="geometry" />
        </mxCell>
        <mxCell id="JGyQkVYAMwlcZkeym2UV-1220" style="edgeStyle=orthogonalEdgeStyle;rounded=0;orthogonalLoop=1;jettySize=auto;html=1;exitX=0;exitY=0.5;exitDx=0;exitDy=0;endArrow=none;endFill=0;" parent="1" source="JGyQkVYAMwlcZkeym2UV-121" edge="1">
          <mxGeometry relative="1" as="geometry">
            <mxPoint x="830" y="50" as="targetPoint" />
            <Array as="points">
              <mxPoint x="830" y="140" />
            </Array>
          </mxGeometry>
        </mxCell>
        <mxCell id="JGyQkVYAMwlcZkeym2UV-1229" style="edgeStyle=orthogonalEdgeStyle;rounded=0;orthogonalLoop=1;jettySize=auto;html=1;exitX=1;exitY=0.5;exitDx=0;exitDy=0;endArrow=none;endFill=0;" parent="1" source="JGyQkVYAMwlcZkeym2UV-121" edge="1">
          <mxGeometry relative="1" as="geometry">
            <mxPoint x="890" y="210" as="targetPoint" />
            <Array as="points">
              <mxPoint x="890" y="140" />
            </Array>
          </mxGeometry>
        </mxCell>
        <mxCell id="JGyQkVYAMwlcZkeym2UV-121" value="&lt;font style=&quot;font-size: 16px;&quot;&gt;BC&lt;/font&gt;" style="whiteSpace=wrap;html=1;aspect=fixed;" parent="1" vertex="1">
          <mxGeometry x="840" y="120" width="40" height="40" as="geometry" />
        </mxCell>
        <mxCell id="JGyQkVYAMwlcZkeym2UV-122" value="&lt;font style=&quot;font-size: 5px;&quot;&gt;sel&lt;/font&gt;" style="text;html=1;align=center;verticalAlign=middle;whiteSpace=wrap;rounded=0;" parent="1" vertex="1">
          <mxGeometry x="840" y="115" width="20" height="10" as="geometry" />
        </mxCell>
        <mxCell id="JGyQkVYAMwlcZkeym2UV-123" value="&lt;font style=&quot;font-size: 5px;&quot;&gt;r_w&lt;/font&gt;" style="text;html=1;align=center;verticalAlign=middle;whiteSpace=wrap;rounded=0;" parent="1" vertex="1">
          <mxGeometry x="860" y="115" width="20" height="10" as="geometry" />
        </mxCell>
        <mxCell id="JGyQkVYAMwlcZkeym2UV-124" value="&lt;font style=&quot;font-size: 5px;&quot;&gt;in&lt;/font&gt;" style="text;html=1;align=center;verticalAlign=middle;whiteSpace=wrap;rounded=0;" parent="1" vertex="1">
          <mxGeometry x="830" y="130" width="30" height="15" as="geometry" />
        </mxCell>
        <mxCell id="JGyQkVYAMwlcZkeym2UV-125" value="&lt;font style=&quot;font-size: 5px;&quot;&gt;out&lt;/font&gt;" style="text;html=1;align=center;verticalAlign=middle;whiteSpace=wrap;rounded=0;" parent="1" vertex="1">
          <mxGeometry x="860" y="130" width="30" height="15" as="geometry" />
        </mxCell>
        <mxCell id="JGyQkVYAMwlcZkeym2UV-1215" style="edgeStyle=orthogonalEdgeStyle;rounded=0;orthogonalLoop=1;jettySize=auto;html=1;exitX=0;exitY=0.5;exitDx=0;exitDy=0;endArrow=none;endFill=0;" parent="1" source="JGyQkVYAMwlcZkeym2UV-91" edge="1">
          <mxGeometry relative="1" as="geometry">
            <mxPoint x="430" y="70" as="targetPoint" />
            <Array as="points">
              <mxPoint x="430" y="140" />
            </Array>
          </mxGeometry>
        </mxCell>
        <mxCell id="JGyQkVYAMwlcZkeym2UV-1224" style="edgeStyle=orthogonalEdgeStyle;rounded=0;orthogonalLoop=1;jettySize=auto;html=1;exitX=1;exitY=0.5;exitDx=0;exitDy=0;endArrow=none;endFill=0;" parent="1" source="JGyQkVYAMwlcZkeym2UV-91" edge="1">
          <mxGeometry relative="1" as="geometry">
            <mxPoint x="490" y="190" as="targetPoint" />
            <Array as="points">
              <mxPoint x="490" y="140" />
            </Array>
          </mxGeometry>
        </mxCell>
        <mxCell id="JGyQkVYAMwlcZkeym2UV-91" value="&lt;font style=&quot;font-size: 16px;&quot;&gt;BC&lt;/font&gt;" style="whiteSpace=wrap;html=1;aspect=fixed;" parent="1" vertex="1">
          <mxGeometry x="440" y="120" width="40" height="40" as="geometry" />
        </mxCell>
        <mxCell id="JGyQkVYAMwlcZkeym2UV-92" value="&lt;font style=&quot;font-size: 5px;&quot;&gt;sel&lt;/font&gt;" style="text;html=1;align=center;verticalAlign=middle;whiteSpace=wrap;rounded=0;" parent="1" vertex="1">
          <mxGeometry x="440" y="115" width="20" height="10" as="geometry" />
        </mxCell>
        <mxCell id="JGyQkVYAMwlcZkeym2UV-93" value="&lt;font style=&quot;font-size: 5px;&quot;&gt;r_w&lt;/font&gt;" style="text;html=1;align=center;verticalAlign=middle;whiteSpace=wrap;rounded=0;" parent="1" vertex="1">
          <mxGeometry x="460" y="115" width="20" height="10" as="geometry" />
        </mxCell>
        <mxCell id="JGyQkVYAMwlcZkeym2UV-94" value="&lt;font style=&quot;font-size: 5px;&quot;&gt;in&lt;/font&gt;" style="text;html=1;align=center;verticalAlign=middle;whiteSpace=wrap;rounded=0;" parent="1" vertex="1">
          <mxGeometry x="430" y="130" width="30" height="15" as="geometry" />
        </mxCell>
        <mxCell id="JGyQkVYAMwlcZkeym2UV-95" value="&lt;font style=&quot;font-size: 5px;&quot;&gt;out&lt;/font&gt;" style="text;html=1;align=center;verticalAlign=middle;whiteSpace=wrap;rounded=0;" parent="1" vertex="1">
          <mxGeometry x="460" y="130" width="30" height="15" as="geometry" />
        </mxCell>
        <mxCell id="JGyQkVYAMwlcZkeym2UV-1221" value="&lt;i&gt;sel_x&lt;/i&gt;" style="text;html=1;align=center;verticalAlign=middle;whiteSpace=wrap;rounded=0;" parent="1" vertex="1">
          <mxGeometry x="190" y="105" width="60" height="30" as="geometry" />
        </mxCell>
        <mxCell id="JGyQkVYAMwlcZkeym2UV-927" style="edgeStyle=orthogonalEdgeStyle;rounded=0;orthogonalLoop=1;jettySize=auto;html=1;exitX=0;exitY=0.5;exitDx=0;exitDy=0;endArrow=none;endFill=0;" parent="1" source="JGyQkVYAMwlcZkeym2UV-79" edge="1">
          <mxGeometry relative="1" as="geometry">
            <mxPoint x="270" y="139.9259259259259" as="targetPoint" />
          </mxGeometry>
        </mxCell>
        <mxCell id="JGyQkVYAMwlcZkeym2UV-1222" style="edgeStyle=orthogonalEdgeStyle;rounded=0;orthogonalLoop=1;jettySize=auto;html=1;exitX=1;exitY=0.5;exitDx=0;exitDy=0;endArrow=none;endFill=0;" parent="1" source="JGyQkVYAMwlcZkeym2UV-79" edge="1">
          <mxGeometry relative="1" as="geometry">
            <mxPoint x="330" y="210" as="targetPoint" />
            <Array as="points">
              <mxPoint x="330" y="140" />
            </Array>
          </mxGeometry>
        </mxCell>
        <mxCell id="JGyQkVYAMwlcZkeym2UV-79" value="&lt;font style=&quot;font-size: 16px;&quot;&gt;BC&lt;/font&gt;" style="whiteSpace=wrap;html=1;aspect=fixed;" parent="1" vertex="1">
          <mxGeometry x="280" y="120" width="40" height="40" as="geometry" />
        </mxCell>
        <mxCell id="JGyQkVYAMwlcZkeym2UV-80" value="&lt;font style=&quot;font-size: 5px;&quot;&gt;sel&lt;/font&gt;" style="text;html=1;align=center;verticalAlign=middle;whiteSpace=wrap;rounded=0;" parent="1" vertex="1">
          <mxGeometry x="280" y="115" width="20" height="10" as="geometry" />
        </mxCell>
        <mxCell id="JGyQkVYAMwlcZkeym2UV-81" value="&lt;font style=&quot;font-size: 5px;&quot;&gt;r_w&lt;/font&gt;" style="text;html=1;align=center;verticalAlign=middle;whiteSpace=wrap;rounded=0;" parent="1" vertex="1">
          <mxGeometry x="300" y="115" width="20" height="10" as="geometry" />
        </mxCell>
        <mxCell id="JGyQkVYAMwlcZkeym2UV-82" value="&lt;font style=&quot;font-size: 5px;&quot;&gt;in&lt;/font&gt;" style="text;html=1;align=center;verticalAlign=middle;whiteSpace=wrap;rounded=0;" parent="1" vertex="1">
          <mxGeometry x="270" y="130" width="30" height="15" as="geometry" />
        </mxCell>
        <mxCell id="JGyQkVYAMwlcZkeym2UV-83" value="&lt;font style=&quot;font-size: 5px;&quot;&gt;out&lt;/font&gt;" style="text;html=1;align=center;verticalAlign=middle;whiteSpace=wrap;rounded=0;" parent="1" vertex="1">
          <mxGeometry x="300" y="130" width="30" height="15" as="geometry" />
        </mxCell>
      </root>
    </mxGraphModel>
  </diagram>
</mxfile>
